# xmcd
#
# Track frame offsets: 
#        150
#        22146
#        36734
#        63171
#        100670
#        123408
#        140394
#        156415
#        174256
#        179870
#        197103
#        207490
#        222607
#        238302
#
# Disc length: 3447 seconds
#
# Revision: 0
# Processed by: cddbd v1.5.2PL0 Copyright (c) Steve Scherf et al.
# Submitted via: ExactAudioCopy v0.95b3
#
DISCID=e10d750e
DTITLE=Janis Joplin  - Janis - Disc 3  FLAC
DYEAR=1900
DGENRE=
TTITLE0=Me And Bobby McGee (Acoustic Demo)
TTITLE1=One Night Stand (Alternate Take)
TTITLE2=Tell Mama (Live)
TTITLE3=Try (Just A Little Bit Harder)(Live)
TTITLE4=Cry Baby
TTITLE5=Move Over
TTITLE6=A Woman Left Lonely
TTITLE7=Half Moon
TTITLE8=Happy Birthday, John (Happy Trails)
TTITLE9=My Baby
TTITLE10=Mercedes Benz
TTITLE11=Trust Me
TTITLE12=Get It While Y
TTITLE13=Me And Bobby McGee
EXTD=
EXTT0=
EXTT1=
EXTT2=
EXTT3=
EXTT4=
EXTT5=
EXTT6=
EXTT7=
EXTT8=
EXTT9=
EXTT10=
EXTT11=
EXTT12=
EXTT13=
PLAYORDER=
